<!DOCTYPE svg PUBLIC "-//W3C//DTD SVG 1.1//EN" "http://www.w3.org/Graphics/SVG/1.1/DTD/svg11.dtd">
<svg width="180px" height="180px" viewBox="0 0 24 24" xmlns="http://www.w3.org/2000/svg" fill="none">
	<style>.s{fill:none;stroke:currentColor;stroke-miterlimit:10;stroke-width:0.84;}</style>
	<polygon class="s" points="12 18.63 18.84 15.21 18.84 7.68 12 4.32 5.16 7.68 5.16 15.21 12 18.63"/>
	<polyline class="s" points="5.16 8.09 5.19 8.09 12 11.46 12 18.84"/>
	<polyline class="s" points="12 18.84 12 11.46 18.81 8.09 18.84 8.09"/>
	<polyline class="s" points="18.84 8.09 18.81 8.09 12 11.46 5.19 8.09 5.16 8.09"/>
	<polyline class="s" points="1.25 6.14 1.25 1.25 6.14 1.25"/>
	<polyline class="s" points="6.14 22.75 1.25 22.75 1.25 17.86"/>
	<polyline class="s" points="22.75 17.86 22.75 22.75 17.86 22.75"/>
	<polyline class="s" points="17.86 1.25 22.75 1.25 22.75 6.14"/>
</svg>